<svg width="21" height="26" viewBox="0 0 21 26" fill="none" xmlns="http://www.w3.org/2000/svg">
<path d="M17.5397 13.727C17.5525 12.7376 17.8153 11.7676 18.3037 10.9071C18.792 10.0466 19.4902 9.32358 20.333 8.80539C19.7976 8.04066 19.0912 7.41132 18.27 6.96735C17.4487 6.52338 16.5353 6.27702 15.6022 6.24782C13.6117 6.03889 11.6821 7.43888 10.6677 7.43888C9.63381 7.43888 8.07214 6.26857 6.39047 6.30316C5.30272 6.3383 4.24262 6.65462 3.31347 7.22127C2.38431 7.78793 1.61778 8.58561 1.08857 9.53659C-1.20381 13.5056 0.506105 19.3387 2.70205 22.5469C3.80074 24.1179 5.08477 25.8727 6.76493 25.8105C8.40906 25.7423 9.02311 24.7621 11.0077 24.7621C12.9739 24.7621 13.55 25.8105 15.2642 25.7709C17.0285 25.7423 18.14 24.193 19.2002 22.6071C19.9896 21.4877 20.597 20.2506 21 18.9415C19.975 18.5079 19.1003 17.7823 18.485 16.855C17.8697 15.9277 17.5409 14.8398 17.5397 13.727Z" fill="black"/>
<path d="M14.3014 4.13756C15.2633 2.9828 15.7372 1.49854 15.6225 0C14.1528 0.154354 12.7953 0.856732 11.8204 1.96719C11.3437 2.50967 10.9787 3.14079 10.746 3.82445C10.5134 4.50812 10.4178 5.23093 10.4647 5.95156C11.1998 5.95912 11.927 5.7998 12.5916 5.48558C13.2561 5.17137 13.8407 4.71045 14.3014 4.13756Z" fill="black"/>
</svg>
