<svg width="23" height="17" viewBox="0 0 23 17" fill="none" xmlns="http://www.w3.org/2000/svg">
<path d="M8.17595 16.6654L1.10818 9.25144C0.905345 9.03571 0.791992 8.74758 0.791992 8.44776C0.791992 8.14794 0.905345 7.85982 1.10818 7.64408L2.64661 6.03671C2.74643 5.93087 2.86597 5.8467 2.99811 5.78923C3.13025 5.73175 3.27231 5.70213 3.41582 5.70213C3.55934 5.70213 3.70139 5.73175 3.83353 5.78923C3.96568 5.8467 4.08521 5.93087 4.18504 6.03671L8.94713 11.0296L19.1446 0.334587C19.2444 0.22874 19.364 0.144576 19.4961 0.0870976C19.6283 0.0296193 19.7703 0 19.9138 0C20.0573 0 20.1994 0.0296193 20.3315 0.0870976C20.4637 0.144576 20.5832 0.22874 20.683 0.334587L22.2215 1.94195C22.4243 2.15769 22.5377 2.44581 22.5377 2.74563C22.5377 3.04546 22.4243 3.33358 22.2215 3.54932L9.71438 16.6654C9.61456 16.7713 9.49502 16.8554 9.36288 16.9129C9.23074 16.9704 9.08869 17 8.94517 17C8.80165 17 8.6596 16.9704 8.52746 16.9129C8.39532 16.8554 8.27578 16.7713 8.17595 16.6654Z" fill="white"/>
</svg>
