<svg aria-hidden="true" style="position: absolute; width: 0; height: 0; overflow: hidden;" version="1.1" xmlns="http://www.w3.org/2000/svg" xmlns:xlink="http://www.w3.org/1999/xlink">
<defs>
<symbol id="icon-deleted-likes" viewBox="0 0 35 32">
<path stroke-linejoin="miter" stroke-linecap="butt" stroke-miterlimit="10" stroke-width="2.6667" d="M32.866 10.862c-0.008-0.108-0.019-0.191-0.027-0.249-0.085-2.313-1.039-4.509-2.669-6.147s-3.818-2.598-6.124-2.688c-1.325 0.003-2.633 0.308-3.823 0.893s-2.232 1.433-3.047 2.482c-0.78-1.049-1.795-1.9-2.961-2.486s-2.454-0.89-3.759-0.889c-4.704 0-8.332 3.877-8.798 8.863-0.009 0.058-0.019 0.129-0.027 0.212-0.075 1.067 0.024 2.139 0.294 3.174 0.686 2.797 2.204 5.319 4.352 7.23l10.068 8.81c0.239 0.208 0.544 0.323 0.86 0.323s0.622-0.115 0.86-0.323l10.144-8.786c2.124-1.952 3.644-4.475 4.38-7.269 0.243-1.031 0.336-2.091 0.275-3.149z"></path>
<path stroke-linejoin="miter" stroke-linecap="round" stroke-miterlimit="10" stroke-width="2.6667" d="M20.375 11.976l-6.638 6.657"></path>
<path stroke-linejoin="miter" stroke-linecap="round" stroke-miterlimit="10" stroke-width="2.6667" d="M13.737 11.976l6.638 6.657"></path>
</symbol>
<symbol id="icon-Fill-1" viewBox="0 0 28 32">
<path stroke-linejoin="miter" stroke-linecap="butt" stroke-miterlimit="10" stroke-width="1.8462" d="M23.782 31.071c-0.514-0.009-1.017-0.158-1.453-0.432s-0.789-0.662-1.021-1.122c-0.226 0.465-0.578 0.857-1.016 1.131s-0.943 0.42-1.459 0.42c-0.516 0-1.022-0.145-1.459-0.42s-0.79-0.666-1.016-1.131c-0.226 0.465-0.578 0.857-1.016 1.131s-0.943 0.42-1.459 0.42c-0.516 0-1.022-0.145-1.459-0.42s-0.79-0.666-1.016-1.131c-0.232 0.461-0.586 0.849-1.023 1.123s-0.939 0.423-1.454 0.431c-0.515-0.008-1.018-0.157-1.455-0.431s-0.791-0.662-1.023-1.123c-0.232 0.46-0.585 0.848-1.021 1.122s-0.938 0.423-1.452 0.432c-0.756-0.018-1.476-0.33-2.006-0.872s-0.829-1.269-0.832-2.028h-0.012v-13.471c-0.087-3.477 1.203-6.847 3.588-9.371s5.67-3.999 9.137-4.099c3.467 0.1 6.752 1.574 9.138 4.099s3.676 5.895 3.588 9.372v13.112c0.033 0.078 0.051 0.161 0.054 0.245 0.019 0.778-0.271 1.533-0.805 2.097s-1.271 0.894-2.047 0.915v0zM18.42 10.231c-0.686 0.020-1.336 0.312-1.808 0.812s-0.727 1.167-0.71 1.855c-0.019 0.343 0.033 0.687 0.151 1.009s0.301 0.618 0.536 0.867c0.236 0.25 0.52 0.448 0.834 0.584s0.654 0.206 0.997 0.206 0.682-0.070 0.997-0.206c0.315-0.136 0.599-0.335 0.834-0.584s0.418-0.545 0.536-0.867c0.118-0.323 0.169-0.666 0.151-1.009 0.017-0.688-0.238-1.355-0.71-1.855s-1.123-0.791-1.809-0.811zM9.354 10.231c-0.687 0.019-1.339 0.31-1.812 0.809s-0.73 1.168-0.713 1.857c-0.017 0.689 0.239 1.358 0.713 1.858s1.126 0.791 1.814 0.809c0.686-0.020 1.336-0.312 1.808-0.812s0.727-1.167 0.71-1.855c0.017-0.688-0.238-1.355-0.71-1.855s-1.122-0.792-1.808-0.812h-0.001z"></path>
</symbol>
<symbol id="icon-gained" viewBox="0 0 34 32">
<path stroke-linejoin="miter" stroke-linecap="butt" stroke-miterlimit="10" stroke-width="2.4615" d="M23.629 30.359c5.149 0 9.322-0.179 9.322-5.343 0-2.48-0.982-4.858-2.73-6.611s-4.12-2.738-6.592-2.738c-2.473 0-4.844 0.985-6.592 2.738s-2.73 4.132-2.73 6.611c0 5.164 4.173 5.343 9.323 5.343z"></path>
<path stroke-linejoin="miter" stroke-linecap="butt" stroke-miterlimit="10" stroke-width="2.4615" d="M23.63 14.107c3.432 0 6.215-2.791 6.215-6.233s-2.783-6.233-6.215-6.233c-3.432 0-6.215 2.791-6.215 6.233s2.783 6.233 6.215 6.233z"></path>
<path stroke-linejoin="miter" stroke-linecap="round" stroke-miterlimit="10" stroke-width="2.4615" d="M6.538 3.199v9.35"></path>
<path stroke-linejoin="miter" stroke-linecap="round" stroke-miterlimit="10" stroke-width="2.4615" d="M11.199 7.874h-9.323"></path>
</symbol>
<symbol id="icon-graphic" viewBox="0 0 32 32">
<path d="M16.414 15.045l6.611-11.802 6.030 6.932-12.641 4.87z"></path>
<path fill="none" stroke="#1d1d1d" style="stroke: var(--color1, #1d1d1d)" stroke-linejoin="miter" stroke-linecap="butt" stroke-miterlimit="10" stroke-width="2.5263" d="M16.195 30.316c7.883 0 14.274-6.409 14.274-14.316s-6.391-14.316-14.274-14.316-14.274 6.409-14.274 14.316c0 7.906 6.391 14.316 14.274 14.316z"></path>
</symbol>
</defs>
</svg>
