<svg aria-hidden="true" style="position: absolute; width: 0; height: 0; overflow: hidden;" version="1.1" xmlns="http://www.w3.org/2000/svg" xmlns:xlink="http://www.w3.org/1999/xlink">
<defs>
<symbol id="icon-Icon-awesome-check" viewBox="0 0 43 32">
<path fill="#fff" style="fill: var(--color1, #fff)" d="M15.39 31.37l-13.304-13.956c-0.382-0.406-0.595-0.948-0.595-1.513s0.213-1.107 0.595-1.513l2.896-3.026c0.188-0.199 0.413-0.358 0.662-0.466s0.516-0.164 0.786-0.164c0.27 0 0.538 0.056 0.786 0.164s0.474 0.267 0.662 0.466l8.964 9.398 19.195-20.132c0.188-0.199 0.413-0.358 0.662-0.466s0.516-0.164 0.786-0.164 0.538 0.056 0.786 0.164c0.249 0.108 0.474 0.267 0.662 0.466l2.896 3.026c0.382 0.406 0.595 0.948 0.595 1.513s-0.213 1.107-0.595 1.513l-23.543 24.689c-0.188 0.199-0.413 0.358-0.662 0.466s-0.516 0.164-0.786 0.164c-0.27 0-0.538-0.056-0.786-0.164s-0.474-0.267-0.662-0.466z"></path>
</symbol>
</defs>
</svg>
